<svg width="96" height="32" viewBox="0 0 96 32" fill="none" xmlns="http://www.w3.org/2000/svg">
<path d="M1.57777 25V7.53906H13.0667V10.5077H5.15865V15.3831H12.2951V18.3012H5.15865V25H1.57777ZM14.9831 25V11.8984H18.4974V25H14.9831ZM16.7393 10.1906C16.2101 10.1906 15.7566 10.0137 15.379 9.65984C15.0013 9.30602 14.8125 8.88143 14.8125 8.38608C14.8125 7.88061 15.0013 7.45303 15.379 7.10334C15.7566 6.75365 16.2101 6.5788 16.7393 6.5788C17.2709 6.5788 17.7259 6.75342 18.1041 7.10266C18.4824 7.4519 18.6715 7.8796 18.6715 8.38574C18.6715 8.88177 18.4824 9.30658 18.1041 9.66018C17.7259 10.0138 17.2709 10.1906 16.7393 10.1906ZM24.4013 17.4142V25H20.887V11.8984H24.2054L24.2614 15.1691H24.0507C24.3943 14.0763 24.9162 13.2307 25.6166 12.6322C26.3169 12.0336 27.2201 11.7344 28.3262 11.7344C29.2343 11.7344 30.0257 11.9318 30.7003 12.3268C31.3749 12.7217 31.8988 13.2875 32.272 14.0243C32.6452 14.7611 32.8318 15.642 32.8318 16.667V25H29.3175V17.2795C29.3175 16.4657 29.1076 15.8275 28.6878 15.3648C28.2681 14.9021 27.6877 14.6707 26.9466 14.6707C26.4524 14.6707 26.0133 14.7789 25.6293 14.9954C25.2453 15.2119 24.9447 15.5238 24.7273 15.9313C24.51 16.3387 24.4013 16.833 24.4013 17.4142ZM32.9147 10.5077V7.53906H47.1732V10.5077H41.8398V25H38.2589V10.5077H32.9147ZM47.5893 25V11.8984H50.9954V14.1799H51.136C51.374 13.3724 51.7761 12.7611 52.3423 12.3461C52.9086 11.9311 53.5591 11.7236 54.294 11.7236C54.4755 11.7236 54.6706 11.7338 54.8791 11.7543C55.0876 11.7748 55.2712 11.8037 55.43 11.841V14.981C55.2747 14.9274 55.0477 14.8839 54.7492 14.8506C54.4507 14.8172 54.1714 14.8005 53.9112 14.8005C53.3748 14.8005 52.8934 14.9166 52.4669 15.1488C52.0404 15.381 51.7066 15.7024 51.4654 16.113C51.2243 16.5237 51.1037 17.0005 51.1037 17.5436V25H47.5893ZM60.0963 25.2541C59.264 25.2541 58.5183 25.1073 57.8594 24.8138C57.2005 24.5203 56.6824 24.0833 56.3051 23.5028C55.9277 22.9223 55.739 22.2003 55.739 21.3367C55.739 20.6036 55.8727 19.9921 56.1401 19.5023C56.4074 19.0124 56.7733 18.618 57.2377 18.3189C57.7022 18.0198 58.2299 17.7923 58.8209 17.6363C59.412 17.4803 60.0311 17.3716 60.6785 17.3104C61.4344 17.2341 62.0448 17.1623 62.5095 17.095C62.9743 17.0276 63.3153 16.9223 63.5325 16.7789C63.7496 16.6356 63.8582 16.4227 63.8582 16.1404V16.0827C63.8582 15.7088 63.7788 15.3926 63.62 15.1339C63.4612 14.8752 63.2293 14.677 62.9243 14.5393C62.6193 14.4016 62.2444 14.3327 61.7995 14.3327C61.3517 14.3327 60.96 14.4008 60.6244 14.5371C60.2888 14.6733 60.014 14.8552 59.7999 15.0828C59.5858 15.3104 59.4317 15.566 59.3375 15.8496L56.114 15.3145C56.3361 14.5514 56.709 13.9041 57.2329 13.3726C57.7568 12.8411 58.4079 12.4352 59.1861 12.1549C59.9643 11.8745 60.8391 11.7344 61.8106 11.7344C62.5139 11.7344 63.1975 11.8177 63.8616 11.9843C64.5257 12.151 65.1217 12.4117 65.6497 12.7663C66.1776 13.121 66.5968 13.5797 66.9071 14.1424C67.2174 14.705 67.3726 15.3841 67.3726 16.1798V25H64.039V23.1808H63.9236C63.7119 23.5867 63.4304 23.9455 63.0791 24.257C62.7277 24.5686 62.3051 24.8127 61.8112 24.9892C61.3173 25.1658 60.7457 25.2541 60.0963 25.2541ZM61.0861 22.7896C61.6395 22.7896 62.1257 22.6794 62.5445 22.4591C62.9633 22.2388 63.2912 21.9415 63.5281 21.5671C63.7651 21.1927 63.8836 20.7758 63.8836 20.3163V18.8985C63.7765 18.9706 63.6186 19.0381 63.4097 19.1012C63.2008 19.1642 62.9677 19.2206 62.7105 19.2705C62.4534 19.3203 62.1995 19.3636 61.9488 19.4002C61.6982 19.4369 61.4756 19.469 61.2809 19.4967C60.849 19.5549 60.4693 19.6539 60.1418 19.7936C59.8143 19.9333 59.56 20.1201 59.3787 20.354C59.1975 20.5879 59.1069 20.881 59.1069 21.2333C59.1069 21.5726 59.1924 21.8576 59.3635 22.0884C59.5346 22.3193 59.7684 22.4939 60.065 22.6121C60.3615 22.7304 60.7019 22.7896 61.0861 22.7896ZM75.6256 25.2559C74.3115 25.2559 73.1755 24.9736 72.2177 24.409C71.2599 23.8444 70.5215 23.0553 70.0025 22.0418C69.4835 21.0283 69.224 19.8497 69.224 18.5059C69.224 17.1514 69.4835 15.9665 70.0025 14.9512C70.5215 13.9359 71.2599 13.1459 72.2177 12.5813C73.1755 12.0167 74.3115 11.7344 75.6256 11.7344C76.406 11.7344 77.1239 11.8354 77.7793 12.0374C78.4346 12.2395 79.0158 12.5285 79.5228 12.9046C80.0298 13.2807 80.4471 13.7377 80.7746 14.2755C81.1021 14.8133 81.3283 15.418 81.4531 16.0896L78.1854 16.7018C78.1127 16.3616 78.003 16.0562 77.8562 15.7855C77.7094 15.5148 77.53 15.2833 77.3181 15.091C77.1061 14.8988 76.8616 14.7523 76.5845 14.6517C76.3074 14.5511 76.0004 14.5008 75.6635 14.5008C75.0375 14.5008 74.5128 14.6692 74.0895 15.0059C73.6662 15.3427 73.3464 15.8105 73.1299 16.4092C72.9134 17.008 72.8052 17.7027 72.8052 18.4933C72.8052 19.2725 72.9134 19.9627 73.1299 20.5638C73.3464 21.165 73.6662 21.6362 74.0895 21.9776C74.5128 22.3189 75.0375 22.4895 75.6635 22.4895C76.004 22.4895 76.3146 22.4373 76.5953 22.3327C76.876 22.2282 77.1251 22.077 77.3428 21.879C77.5604 21.681 77.7427 21.4399 77.8895 21.1557C78.0363 20.8715 78.1439 20.5536 78.2123 20.2021L81.4747 20.8079C81.3534 21.4993 81.1281 22.1179 80.7988 22.6635C80.4695 23.2091 80.0515 23.6757 79.5448 24.0632C79.0381 24.4507 78.4542 24.7464 77.7932 24.9502C77.1322 25.154 76.4096 25.2559 75.6256 25.2559ZM86.4786 21.1624V16.9353H87.0109L91.2961 11.8984H95.3586L89.6987 18.4692H88.8694L86.4786 21.1624ZM83.2894 25V7.53906H86.8037V25H83.2894ZM91.4669 25L87.5398 19.2543L89.8878 16.7598L95.6105 25H91.4669Z" fill="black"/>
</svg>
