<svg width="16" height="5" viewBox="0 0 16 5" fill="none" xmlns="http://www.w3.org/2000/svg">
<path d="M1.93047 3.999C1.38081 3.97981 0.917096 3.76766 0.539337 3.36257C0.161578 2.95747 -0.0177047 2.48009 0.00149006 1.93042C0.0206848 1.38076 0.232831 0.917045 0.637928 0.539286C1.04302 0.161527 1.52041 -0.0177551 2.07007 0.00143962C2.61974 0.0206343 3.08345 0.23278 3.46121 0.637877C3.83897 1.04297 4.01825 1.52036 3.99905 2.07002C3.97986 2.61969 3.76771 3.0834 3.36262 3.46116C2.95752 3.83892 2.48014 4.0182 1.93047 3.999ZM7.92682 4.2084C7.37715 4.18921 6.91344 3.97706 6.53568 3.57196C6.15792 3.16687 5.97864 2.68948 5.99784 2.13982C6.01703 1.59015 6.22918 1.12644 6.63427 0.748683C7.03937 0.370924 7.51675 0.191642 8.06642 0.210837C8.61608 0.230031 9.0798 0.442177 9.45755 0.847274C9.83531 1.25237 10.0146 1.72975 9.9954 2.27942C9.97621 2.82908 9.76406 3.29279 9.35896 3.67055C8.95387 4.04831 8.47648 4.2276 7.92682 4.2084ZM13.9232 4.4178C13.3735 4.3986 12.9098 4.18646 12.532 3.78136C12.1543 3.37626 11.975 2.89888 11.9942 2.34922C12.0134 1.79955 12.2255 1.33584 12.6306 0.95808C13.0357 0.580321 13.5131 0.401039 14.0628 0.420234C14.6124 0.439428 15.0761 0.651574 15.4539 1.05667C15.8317 1.46177 16.0109 1.93915 15.9917 2.48881C15.9726 3.03848 15.7604 3.50219 15.3553 3.87995C14.9502 4.25771 14.4728 4.43699 13.9232 4.4178Z" fill="#76777D"/>
</svg>
