<svg width="40" height="40" viewBox="0 0 40 40" fill="none" xmlns="http://www.w3.org/2000/svg">
<rect width="40" height="40" rx="20" fill="#E5EEFF"/>
<path d="M19.9998 28.3334C18.8471 28.3334 17.7637 28.1147 16.7498 27.6772C15.7359 27.2397 14.854 26.6459 14.104 25.8959C13.354 25.1459 12.7603 24.264 12.3228 23.2501C11.8853 22.2362 11.6665 21.1529 11.6665 20.0001C11.6665 18.8473 11.8853 17.764 12.3228 16.7501C12.7603 15.7362 13.354 14.8542 14.104 14.1042C14.854 13.3542 15.7359 12.7605 16.7498 12.323C17.7637 11.8855 18.8471 11.6667 19.9998 11.6667C21.1526 11.6667 22.2359 11.8855 23.2498 12.323C24.2637 12.7605 25.1457 13.3542 25.8957 14.1042C26.6457 14.8542 27.2394 15.7362 27.6769 16.7501C28.1144 17.764 28.3332 18.8473 28.3332 20.0001C28.3332 21.1529 28.1144 22.2362 27.6769 23.2501C27.2394 24.264 26.6457 25.1459 25.8957 25.8959C25.1457 26.6459 24.2637 27.2397 23.2498 27.6772C22.2359 28.1147 21.1526 28.3334 19.9998 28.3334ZM19.1665 26.6251V25.0001C18.7082 25.0001 18.3158 24.8369 17.9894 24.5105C17.663 24.1841 17.4998 23.7917 17.4998 23.3334V22.5001L13.4998 18.5001C13.4582 18.7501 13.42 19.0001 13.3853 19.2501C13.3505 19.5001 13.3332 19.7501 13.3332 20.0001C13.3332 21.6806 13.8853 23.1529 14.9894 24.4167C16.0936 25.6806 17.4859 26.4167 19.1665 26.6251ZM24.9165 24.5001C25.4859 23.8751 25.92 23.1772 26.2186 22.4063C26.5172 21.6355 26.6665 20.8334 26.6665 20.0001C26.6665 18.639 26.288 17.3959 25.5311 16.2709C24.7741 15.1459 23.7637 14.3334 22.4998 13.8334V14.1667C22.4998 14.6251 22.3366 15.0174 22.0103 15.3438C21.6839 15.6702 21.2915 15.8334 20.8332 15.8334H19.1665V17.5001C19.1665 17.7362 19.0866 17.9341 18.9269 18.0938C18.7672 18.2536 18.5693 18.3334 18.3332 18.3334H16.6665V20.0001H21.6665C21.9026 20.0001 22.1005 20.0799 22.2603 20.2397C22.42 20.3994 22.4998 20.5973 22.4998 20.8334V23.3334H23.3332C23.6943 23.3334 24.0207 23.4411 24.3123 23.6563C24.604 23.8716 24.8054 24.1529 24.9165 24.5001Z" fill="#0B1C30"/>
</svg>
