<svg width="42" height="42" viewBox="0 0 42 42" fill="none" xmlns="http://www.w3.org/2000/svg">
<rect x="1.39614" width="39.9945" height="40.0045" rx="19.9973" transform="rotate(2 1.39614 0)" fill="white"/>
<path d="M22.6469 21.7572C21.8141 21.7281 21.1163 21.4119 20.5537 20.8085C19.9911 20.2052 19.7243 19.4871 19.7534 18.6543C19.7825 17.8215 20.0987 17.1238 20.702 16.5611C21.3054 15.9985 22.0235 15.7317 22.8563 15.7608C23.6891 15.7899 24.3868 16.1061 24.9494 16.7095C25.5121 17.3128 25.7788 18.0309 25.7498 18.8637C25.7207 19.6965 25.4045 20.3942 24.8011 20.9569C24.1978 21.5195 23.4797 21.7863 22.6469 21.7572ZM15.5464 24.511C14.9968 24.4919 14.5331 24.2797 14.1553 23.8746C13.7775 23.4695 13.5983 22.9921 13.6175 22.4425L13.8967 14.4473C13.9159 13.8977 14.128 13.434 14.5331 13.0562C14.9382 12.6784 15.4156 12.4992 15.9652 12.5184L29.9567 13.0069C30.5064 13.0261 30.9701 13.2383 31.3478 13.6434C31.7256 14.0485 31.9049 14.5259 31.8857 15.0755L31.6065 23.0707C31.5873 23.6203 31.3752 24.084 30.9701 24.4618C30.565 24.8396 30.0876 25.0188 29.5379 24.9996L15.5464 24.511ZM17.615 22.5821L27.6089 22.9311C27.6281 22.3814 27.8403 21.9177 28.2454 21.5399C28.6505 21.1622 29.1279 20.9829 29.6775 21.0021L29.8171 17.0045C29.2674 16.9853 28.8037 16.7732 28.426 16.3681C28.0482 15.963 27.8689 15.4856 27.8881 14.9359L17.8942 14.5869C17.875 15.1366 17.6629 15.6003 17.2578 15.9781C16.8527 16.3558 16.3753 16.5351 15.8256 16.5159L15.686 20.5135C16.2357 20.5327 16.6994 20.7448 17.0772 21.1499C17.4549 21.555 17.6342 22.0324 17.615 22.5821ZM28.3989 28.9623L11.4093 28.369C10.8596 28.3498 10.3959 28.1377 10.0181 27.7326C9.64039 27.3275 9.4611 26.8501 9.4803 26.3004L9.86419 15.3071L11.863 15.3769L11.4791 26.3702L28.4687 26.9635L28.3989 28.9623ZM15.6162 22.5123L15.8954 14.5171L15.6162 22.5123Z" fill="#009668"/>
</svg>
