<svg width="23" height="17" viewBox="0 0 23 17" fill="none" xmlns="http://www.w3.org/2000/svg">
<path d="M13.1677 9.2402C12.3349 9.21112 11.6372 8.89491 11.0746 8.29158C10.5119 7.68824 10.2452 6.97016 10.2743 6.13733C10.3033 5.30451 10.6196 4.60678 11.2229 4.04416C11.8262 3.48154 12.5443 3.21478 13.3771 3.24386C14.21 3.27294 14.9077 3.58915 15.4703 4.19249C16.0329 4.79582 16.2997 5.5139 16.2706 6.34673C16.2415 7.17956 15.9253 7.87728 15.322 8.4399C14.7186 9.00252 14.0006 9.26929 13.1677 9.2402ZM6.0673 11.9941C5.51763 11.9749 5.05392 11.7627 4.67616 11.3576C4.2984 10.9525 4.11912 10.4752 4.13832 9.9255L4.41751 1.93037C4.43671 1.38071 4.64885 0.916995 5.05395 0.539236C5.45905 0.161477 5.93643 -0.0178055 6.48609 0.00138918L20.4776 0.489982C21.0272 0.509177 21.4909 0.721323 21.8687 1.12642C22.2465 1.53152 22.4257 2.0089 22.4065 2.55856L22.1274 10.5537C22.1082 11.1034 21.896 11.5671 21.4909 11.9448C21.0858 12.3226 20.6084 12.5019 20.0588 12.4827L6.0673 11.9941ZM8.13588 10.0651L18.1298 10.4141C18.149 9.86443 18.3611 9.40072 18.7662 9.02296C19.1713 8.6452 19.6487 8.46592 20.1984 8.48511L20.338 4.48755C19.7883 4.46835 19.3246 4.25621 18.9468 3.85111C18.5691 3.44601 18.3898 2.96863 18.409 2.41897L8.41508 2.06997C8.39588 2.61964 8.18373 3.08335 7.77864 3.46111C7.37354 3.83887 6.89616 4.01815 6.34649 3.99895L6.2069 7.99652C6.75656 8.01571 7.22027 8.22786 7.59803 8.63295C7.97579 9.03805 8.15507 9.51543 8.13588 10.0651ZM18.9198 16.4453L1.93014 15.852C1.38047 15.8329 0.916759 15.6207 0.539 15.2156C0.161241 14.8105 -0.0180416 14.3331 0.0011531 13.7835L0.385048 2.79017L2.38383 2.85996L1.99994 13.8533L18.9896 14.4466L18.9198 16.4453ZM6.1371 9.9953L6.41629 2.00017L6.1371 9.9953Z" fill="#009668"/>
</svg>
