<svg width="40" height="40" viewBox="0 0 40 40" fill="none" xmlns="http://www.w3.org/2000/svg">
<rect width="40" height="40" rx="20" fill="#E5EEFF"/>
<path d="M25 28.3334C24.3056 28.3334 23.7153 28.0904 23.2292 27.6042C22.7431 27.1181 22.5 26.5279 22.5 25.8334C22.5 25.7501 22.5208 25.5556 22.5625 25.2501L16.7083 21.8334C16.4861 22.0417 16.2292 22.2049 15.9375 22.323C15.6458 22.4411 15.3333 22.5001 15 22.5001C14.3056 22.5001 13.7153 22.257 13.2292 21.7709C12.7431 21.2848 12.5 20.6945 12.5 20.0001C12.5 19.3056 12.7431 18.7154 13.2292 18.2292C13.7153 17.7431 14.3056 17.5001 15 17.5001C15.3333 17.5001 15.6458 17.5591 15.9375 17.6772C16.2292 17.7952 16.4861 17.9584 16.7083 18.1667L22.5625 14.7501C22.5347 14.6529 22.5174 14.5591 22.5104 14.4688C22.5035 14.3786 22.5 14.2779 22.5 14.1667C22.5 13.4723 22.7431 12.882 23.2292 12.3959C23.7153 11.9098 24.3056 11.6667 25 11.6667C25.6944 11.6667 26.2847 11.9098 26.7708 12.3959C27.2569 12.882 27.5 13.4723 27.5 14.1667C27.5 14.8612 27.2569 15.4515 26.7708 15.9376C26.2847 16.4237 25.6944 16.6667 25 16.6667C24.6667 16.6667 24.3542 16.6077 24.0625 16.4897C23.7708 16.3716 23.5139 16.2084 23.2917 16.0001L17.4375 19.4167C17.4653 19.514 17.4826 19.6077 17.4896 19.698C17.4965 19.7883 17.5 19.889 17.5 20.0001C17.5 20.1112 17.4965 20.2119 17.4896 20.3022C17.4826 20.3924 17.4653 20.4862 17.4375 20.5834L23.2917 24.0001C23.5139 23.7917 23.7708 23.6286 24.0625 23.5105C24.3542 23.3924 24.6667 23.3334 25 23.3334C25.6944 23.3334 26.2847 23.5765 26.7708 24.0626C27.2569 24.5487 27.5 25.139 27.5 25.8334C27.5 26.5279 27.2569 27.1181 26.7708 27.6042C26.2847 28.0904 25.6944 28.3334 25 28.3334ZM25 26.6667C25.2361 26.6667 25.434 26.5869 25.5938 26.4272C25.7535 26.2674 25.8333 26.0695 25.8333 25.8334C25.8333 25.5973 25.7535 25.3994 25.5938 25.2397C25.434 25.0799 25.2361 25.0001 25 25.0001C24.7639 25.0001 24.566 25.0799 24.4062 25.2397C24.2465 25.3994 24.1667 25.5973 24.1667 25.8334C24.1667 26.0695 24.2465 26.2674 24.4062 26.4272C24.566 26.5869 24.7639 26.6667 25 26.6667ZM15 20.8334C15.2361 20.8334 15.434 20.7536 15.5938 20.5938C15.7535 20.4341 15.8333 20.2362 15.8333 20.0001C15.8333 19.764 15.7535 19.5661 15.5938 19.4063C15.434 19.2466 15.2361 19.1667 15 19.1667C14.7639 19.1667 14.566 19.2466 14.4062 19.4063C14.2465 19.5661 14.1667 19.764 14.1667 20.0001C14.1667 20.2362 14.2465 20.4341 14.4062 20.5938C14.566 20.7536 14.7639 20.8334 15 20.8334ZM25 15.0001C25.2361 15.0001 25.434 14.9202 25.5938 14.7605C25.7535 14.6008 25.8333 14.4029 25.8333 14.1667C25.8333 13.9306 25.7535 13.7327 25.5938 13.573C25.434 13.4133 25.2361 13.3334 25 13.3334C24.7639 13.3334 24.566 13.4133 24.4062 13.573C24.2465 13.7327 24.1667 13.9306 24.1667 14.1667C24.1667 14.4029 24.2465 14.6008 24.4062 14.7605C24.566 14.9202 24.7639 15.0001 25 15.0001Z" fill="#0B1C30"/>
</svg>
