<svg width="42" height="42" viewBox="0 0 42 42" fill="none" xmlns="http://www.w3.org/2000/svg">
<rect x="1.396" width="39.9945" height="39.9945" rx="19.9973" transform="rotate(2 1.396 0)" fill="white"/>
<path d="M16.3457 30.5375C15.7961 30.5184 15.3323 30.3062 14.9546 29.9011C14.5768 29.496 14.3975 29.0186 14.4167 28.469C14.4359 27.9193 14.6481 27.4556 15.0532 27.0778C15.4583 26.7001 15.9357 26.5208 16.4853 26.54C17.035 26.5592 17.4987 26.7713 17.8765 27.1764C18.2542 27.5815 18.4335 28.0589 18.4143 28.6086C18.3951 29.1582 18.183 29.6219 17.7779 29.9997C17.3728 30.3775 16.8954 30.5567 16.3457 30.5375ZM26.3396 30.8865C25.79 30.8673 25.3263 30.6552 24.9485 30.2501C24.5707 29.845 24.3915 29.3676 24.4106 28.818C24.4298 28.2683 24.642 27.8046 25.0471 27.4268C25.4522 27.0491 25.9296 26.8698 26.4792 26.889C27.0289 26.9082 27.4926 27.1203 27.8704 27.5254C28.2481 27.9305 28.4274 28.4079 28.4082 28.9576C28.389 29.5072 28.1769 29.9709 27.7718 30.3487C27.3667 30.7265 26.8893 30.9057 26.3396 30.8865ZM16.0546 14.5176L18.2787 19.5983L25.2744 19.8426L28.1972 14.9417L16.0546 14.5176ZM15.175 12.4857L29.916 13.0005C30.2991 13.0138 30.5847 13.1947 30.7726 13.5432C30.9606 13.8916 30.9568 14.2375 30.7614 14.5809L26.9902 20.8531C26.7953 21.1799 26.5406 21.4295 26.2261 21.6019C25.9115 21.7744 25.5711 21.8542 25.2046 21.8414L17.7591 21.5814L16.59 23.5418L28.5827 23.9606L28.5129 25.9594L16.5202 25.5406C15.7707 25.5144 15.2158 25.1657 14.8557 24.4944C14.4956 23.8231 14.5018 23.1687 14.8742 22.5313L16.3089 20.1299L12.9763 12.4089L10.9776 12.3391L11.0474 10.3403L14.2954 10.4538L15.175 12.4857ZM18.2787 19.5983L25.2744 19.8426L18.2787 19.5983Z" fill="#0058BE"/>
</svg>
