<svg width="20" height="21" viewBox="0 0 20 21" fill="none" xmlns="http://www.w3.org/2000/svg">
<path d="M5.36818 20.1972C4.81852 20.178 4.3548 19.9659 3.97704 19.5608C3.59928 19.1557 3.42 18.6783 3.4392 18.1286C3.45839 17.579 3.67054 17.1153 4.07564 16.7375C4.48073 16.3597 4.95811 16.1805 5.50778 16.1997C6.05744 16.2188 6.52116 16.431 6.89891 16.8361C7.27667 17.2412 7.45596 17.7186 7.43676 18.2682C7.41757 18.8179 7.20542 19.2816 6.80032 19.6594C6.39523 20.0371 5.91785 20.2164 5.36818 20.1972ZM15.3621 20.5462C14.8124 20.527 14.3487 20.3149 13.971 19.9098C13.5932 19.5047 13.4139 19.0273 13.4331 18.4776C13.4523 17.928 13.6644 17.4643 14.0695 17.0865C14.4746 16.7087 14.952 16.5295 15.5017 16.5486C16.0514 16.5678 16.5151 16.78 16.8928 17.1851C17.2706 17.5902 17.4499 18.0676 17.4307 18.6172C17.4115 19.1669 17.1993 19.6306 16.7942 20.0084C16.3891 20.3861 15.9118 20.5654 15.3621 20.5462ZM5.07709 4.1773L7.30113 9.25801L14.2969 9.50231L17.2197 4.60133L5.07709 4.1773ZM4.19747 2.14536L18.9385 2.66013C19.3216 2.67351 19.6071 2.85441 19.7951 3.20285C19.983 3.55129 19.9793 3.8972 19.7838 4.24059L16.0126 10.5128C15.8178 10.8395 15.5631 11.0891 15.2485 11.2616C14.934 11.4341 14.5935 11.5139 14.2271 11.5011L6.78161 11.2411L5.61248 13.2015L17.6052 13.6203L17.5354 15.6191L5.54268 15.2003C4.79313 15.1741 4.2383 14.8253 3.87818 14.154C3.51805 13.4827 3.52423 12.8284 3.8967 12.191L5.33138 9.78959L1.99881 2.06858L2.52202e-05 1.99878L0.0698242 0L3.31785 0.113423L4.19747 2.14536ZM7.30113 9.25801L14.2969 9.50231L7.30113 9.25801Z" fill="#0058BE"/>
</svg>
