<svg width="56" height="56" viewBox="0 0 56 56" fill="none" xmlns="http://www.w3.org/2000/svg">
<rect width="56" height="56" rx="24" fill="#6FFBBE"/>
<path d="M33.125 28.75L31.3125 26.9375C31.5 25.9583 31.2188 25.0417 30.4688 24.1875C29.7188 23.3333 28.75 23 27.5625 23.1875L25.75 21.375C26.1042 21.2083 26.4635 21.0833 26.8281 21C27.1927 20.9167 27.5833 20.875 28 20.875C29.5625 20.875 30.8906 21.4219 31.9844 22.5156C33.0781 23.6094 33.625 24.9375 33.625 26.5C33.625 26.9167 33.5833 27.3073 33.5 27.6719C33.4167 28.0365 33.2917 28.3958 33.125 28.75ZM37.125 32.6875L35.3125 30.9375C36.1042 30.3333 36.8073 29.6719 37.4219 28.9531C38.0365 28.2344 38.5625 27.4167 39 26.5C37.9583 24.3958 36.4635 22.724 34.5156 21.4844C32.5677 20.2448 30.3958 19.625 28 19.625C27.3958 19.625 26.8021 19.6667 26.2188 19.75C25.6354 19.8333 25.0625 19.9583 24.5 20.125L22.5625 18.1875C23.4167 17.8333 24.2917 17.5677 25.1875 17.3906C26.0833 17.2135 27.0208 17.125 28 17.125C31.1458 17.125 33.9479 17.9948 36.4062 19.7344C38.8646 21.474 40.6458 23.7292 41.75 26.5C41.2708 27.7292 40.6406 28.8698 39.8594 29.9219C39.0781 30.974 38.1667 31.8958 37.125 32.6875ZM37.75 40.375L32.5 35.1875C31.7708 35.4167 31.0365 35.5885 30.2969 35.7031C29.5573 35.8177 28.7917 35.875 28 35.875C24.8542 35.875 22.0521 35.0052 19.5938 33.2656C17.1354 31.526 15.3542 29.2708 14.25 26.5C14.6875 25.3958 15.2396 24.3698 15.9062 23.4219C16.5729 22.474 17.3333 21.625 18.1875 20.875L14.75 17.375L16.5 15.625L39.5 38.625L37.75 40.375ZM19.9375 22.625C19.3333 23.1667 18.7812 23.7604 18.2812 24.4062C17.7812 25.0521 17.3542 25.75 17 26.5C18.0417 28.6042 19.5365 30.276 21.4844 31.5156C23.4323 32.7552 25.6042 33.375 28 33.375C28.4167 33.375 28.8229 33.349 29.2188 33.2969C29.6146 33.2448 30.0208 33.1875 30.4375 33.125L29.3125 31.9375C29.0833 32 28.8646 32.0469 28.6562 32.0781C28.4479 32.1094 28.2292 32.125 28 32.125C26.4375 32.125 25.1094 31.5781 24.0156 30.4844C22.9219 29.3906 22.375 28.0625 22.375 26.5C22.375 26.2708 22.3906 26.0521 22.4219 25.8438C22.4531 25.6354 22.5 25.4167 22.5625 25.1875L19.9375 22.625Z" fill="#002113"/>
</svg>
